<svg xmlns="http://www.w3.org/2000/svg" xmlns:xlink="http://www.w3.org/1999/xlink" width="1920" height="1080">
    <path fill="#da0000" d="M0 0h1920v1080H0z"/>
    <path fill="#fff" d="M0 0h1920v720H0z"/>
    <path fill="#239f40" d="M0 0h1920v360H0z"/>
    <g transform="translate(25.6 301.3)">
        <g id="e">
            <g id="c" fill="none" stroke="#fff" stroke-width="2">
                <path id="b" d="M0 1h26M1 10V5h8v4h8V5h-5M4 9h2m20 0h-5V5h8m0-5v9h8V0m-4 0v9" transform="scale(4.2)"/>
                <path id="a" d="M0 7h9m1 0h9" transform="scale(8.4)"/>
                <use xlink:href="#a" y="360"/>
                <use xlink:href="#b" y="435.6"/>
            </g>
            <g id="d">
                <use xlink:href="#c" x="168"/>
                <use xlink:href="#c" x="336"/>
                <use xlink:href="#c" x="504"/>
            </g>
        </g>
        <use xlink:href="#d" x="504"/>
        <use xlink:href="#e" x="1176"/>
    </g>
    <g fill="#da0000" transform="matrix(135 0 0 135 960 540)">
        <g id="f">
            <path d="M-.548.836A.912.912 0 0 0 .329-.722 1 1 0 0 1-.548.836"/>
            <path d="M.618.661A.764.764 0 0 0 .422-.74 1 1 0 0 1 .618.661M0 1l-.05-1L0-.787a.31.31 0 0 0 .118.099V-.1l-.04.993zM-.02-.85 0-.831a.144.144 0 0 0 .252-.137A.136.136 0 0 1 0-.925"/>
        </g>
        <use xlink:href="#f" transform="scale(-1 1)"/>
    </g>
</svg>
