<svg width="200" height="200" viewBox="0 0 208 202" xmlns="http://www.w3.org/2000/svg">
    <!-- White outer circle background -->
    <circle cx="104" cy="100" r="100" fill="#0966FF"/> <!--  wrpped circle-->

    <!-- Centered Facebook-like logo inside -->
    <g transform="translate(5.4, 0.1) scale(1.126)">
        <path d="
      M175.161 88.8251
      C175.161 39.7688 135.95 0 87.5805 0
      C39.2116 0 0 39.7688 0 88.8251
      C0 130.481 28.278 165.435 66.4246 175.035
      C79 178.4 90.6 177.98 99 176.8
      C141.555 171.688 175.161 134.24 175.161 88.8251
      Z" fill="white"/>

        <path d="
      M175.161 88.8251C175.161 39.7688 135.95 0 87.5805 0
      C39.2116 0 0 39.7688 0 88.8251
      C0 130.481 28.278 165.435 66.4246 175.035V115.97H48.3655V88.8251H66.4246
      V77.1286C66.4246 46.8961 79.9155 32.8831 109.181 32.8831
      C114.731 32.8831 124.305 33.988 128.221 35.0895V59.694
      C126.155 59.4737 122.564 59.3636 118.104 59.3636
      C103.744 59.3636 98.1953 64.8814 98.1953 79.2249V88.8251H126.803
      L121.888 115.97H98.1953V177
      C141.555 171.688 175.161 134.24 175.161 88.8251Z" fill="#0966FF"/>
    </g>
</svg>
